<?xml version="1.0" encoding="utf-8"?>
<!-- Generator: Adobe Illustrator 16.0.0, SVG Export Plug-In . SVG Version: 6.00 Build 0)  -->
<!DOCTYPE svg PUBLIC "-//W3C//DTD SVG 1.1//EN" "http://www.w3.org/Graphics/SVG/1.1/DTD/svg11.dtd">
<svg version="1.1" id="Layer_1" xmlns="http://www.w3.org/2000/svg" xmlns:xlink="http://www.w3.org/1999/xlink" x="0px" y="0px"
	 width="3200px" height="1720px" viewBox="0 0 3200 1720" enable-background="new 0 0 3200 1720" xml:space="preserve">
<title>Artboard</title>
<desc>Created with Sketch.</desc>
<linearGradient id="Combined-Shape_1_" gradientUnits="userSpaceOnUse" x1="88.0039" y1="1613.2734" x2="88.0039" y2="1612.7443" gradientTransform="matrix(80 0 0 -80 -6190.875 129739.3125)">
	<stop  offset="0" style="stop-color:#8CB3FF"/>
	<stop  offset="1" style="stop-color:#FF85DE"/>
</linearGradient>
<path id="Combined-Shape_9_" opacity="0.5" fill="url(#Combined-Shape_1_)" d="M849.431,722.506
	c32.21,0,58.324-26.113,58.324-58.324s-26.114-58.322-58.324-58.322c-32.211,0-58.324,26.111-58.324,58.322
	S817.219,722.506,849.431,722.506z M849.431,711.855c26.328,0,47.673-21.345,47.673-47.673c0-26.329-21.345-47.672-47.673-47.672
	c-26.329,0-47.673,21.343-47.673,47.672C801.758,690.511,823.102,711.855,849.431,711.855z"/>
<linearGradient id="Combined-Shape_3_" gradientUnits="userSpaceOnUse" x1="-3.3594" y1="1623.7275" x2="-2.3595" y2="1622.7277" gradientTransform="matrix(20 0 0 -20 1278.4609 32841.2344)">
	<stop  offset="0" style="stop-color:#28FFF1"/>
	<stop  offset="1" style="stop-color:#8DACFF"/>
</linearGradient>
<circle id="Combined-Shape_2_" fill="url(#Combined-Shape_3_)" cx="1221.282" cy="376.674" r="10"/>
<linearGradient id="Combined-Shape_10_" gradientUnits="userSpaceOnUse" x1="35.6021" y1="1601.8154" x2="36.6019" y2="1600.8156" gradientTransform="matrix(20 0 0 -20 1278.4609 32841.2344)">
	<stop  offset="0" style="stop-color:#28FFF1"/>
	<stop  offset="1" style="stop-color:#8DACFF"/>
</linearGradient>
<circle id="Combined-Shape_8_" fill="url(#Combined-Shape_10_)" cx="2000.5" cy="814.924" r="10"/>
<linearGradient id="Combined-Shape_11_" gradientUnits="userSpaceOnUse" x1="59.811" y1="1611.8262" x2="60.8109" y2="1610.8263" gradientTransform="matrix(20 0 0 -20 1278.4609 32841.2344)">
	<stop  offset="0" style="stop-color:#8CB3FF"/>
	<stop  offset="1" style="stop-color:#FF85DE"/>
</linearGradient>
<circle id="Combined-Shape_6_" fill="url(#Combined-Shape_11_)" cx="2484.686" cy="614.719" r="10"/>
<circle id="Combined-Shape_7_" fill="#FFD578" cx="613.807" cy="511.951" r="11.25"/>
<linearGradient id="Oval-2_1_" gradientUnits="userSpaceOnUse" x1="101.1807" y1="1611.0322" x2="101.1807" y2="1610.0635" gradientTransform="matrix(1073.2571 0 0 -1017.9158 -105973.3359 1640611)">
	<stop  offset="0" style="stop-color:#6F76FF"/>
	<stop  offset="1" style="stop-color:#0003E3;stop-opacity:0"/>
</linearGradient>
<ellipse id="Oval-2_7_" opacity="0.5" fill="url(#Oval-2_1_)" fill-opacity="0.7" cx="2622.775" cy="1209.042" rx="520.051" ry="493.235"/>
<linearGradient id="Oval-2_4_" gradientUnits="userSpaceOnUse" x1="98.1377" y1="1610.9717" x2="98.1377" y2="1609.8026" gradientTransform="matrix(780.7176 0 0 -712.2047 -76172.6172 1148156.25)">
	<stop  offset="0" style="stop-color:#6FD1FF;stop-opacity:0.2566"/>
	<stop  offset="1" style="stop-color:#0003E3"/>
</linearGradient>
<ellipse id="Oval-2_16_" opacity="0.5" fill="url(#Oval-2_4_)" fill-opacity="0.7" cx="446.917" cy="1157.706" rx="378.3" ry="345.103"/>
<g id="Page-1_1_" opacity="0.5">
	<g>
		<linearGradient id="Combined-Shape_12_" gradientUnits="userSpaceOnUse" x1="0" y1="1302.3027" x2="3201.2627" y2="1302.3027">
			<stop  offset="0" style="stop-color:#849EFF;stop-opacity:0.4512"/>
			<stop  offset="1" style="stop-color:#0003E3"/>
		</linearGradient>
		<path id="Combined-Shape_15_" fill="url(#Combined-Shape_12_)" d="M3201.263,977.789v740.391H0V977.789v93.272
			c545.771-248.535,1079.313-246.156,1600.631,7.136c521.318,253.292,1054.861,250.914,1600.632-7.136V977.789z"/>
	</g>
</g>
<g id="Page-1_2_" opacity="0.5">
	<g>
		<linearGradient id="Combined-Shape_13_" gradientUnits="userSpaceOnUse" x1="0" y1="1303.3281" x2="3200.0391" y2="1303.3281">
			<stop  offset="0" style="stop-color:#6661FF"/>
			<stop  offset="1" style="stop-color:#0098E3;stop-opacity:0"/>
		</linearGradient>
		<path id="Combined-Shape_16_" fill="url(#Combined-Shape_13_)" d="M0.024,886.656H0V1720h3200.039v-700.009
			c-0.379-0.063-494.202-128.322-1294.02-130.6C865.009,886.428,0,1451.991,0,1451.991S0.009,970.885,0.024,886.656z"/>
	</g>
</g>
<circle fill="#FF9C65" cx="2046.364" cy="376.674" r="15.001"/>
</svg>
